<svg width="396" height="679" viewBox="0 0 396 679" fill="none" xmlns="http://www.w3.org/2000/svg">
<path d="M152 504C152 503.448 151.552 503 151 503C150.448 503 150 503.448 150 504H152ZM285.293 678.707C285.683 679.098 286.317 679.098 286.707 678.707L293.071 672.343C293.462 671.953 293.462 671.319 293.071 670.929C292.681 670.538 292.047 670.538 291.657 670.929L286 676.586L280.343 670.929C279.953 670.538 279.319 670.538 278.929 670.929C278.538 671.319 278.538 671.953 278.929 672.343L285.293 678.707ZM150 504V567H152V504H150ZM175 592H262V590H175V592ZM285 615V678H287V615H285ZM262 592C274.703 592 285 602.297 285 615H287C287 601.193 275.807 590 262 590V592ZM150 567C150 580.807 161.193 592 175 592V590C162.297 590 152 579.703 152 567H150Z" fill="black"/>
<path d="M389 1C389 0.447715 388.552 0 388 0C387.448 0 387 0.447715 387 1H389ZM387.293 105.707C387.683 106.098 388.317 106.098 388.707 105.707L395.071 99.3431C395.462 98.9526 395.462 98.3195 395.071 97.9289C394.681 97.5384 394.047 97.5384 393.657 97.9289L388 103.586L382.343 97.9289C381.953 97.5384 381.319 97.5384 380.929 97.9289C380.538 98.3195 380.538 98.9526 380.929 99.3431L387.293 105.707ZM387 1V105H389V1H387Z" fill="black"/>
<path d="M152 504C152 503.448 151.552 503 151 503C150.448 503 150 503.448 150 504H152ZM7.29289 678.707C7.68342 679.098 8.31658 679.098 8.70711 678.707L15.0711 672.343C15.4616 671.953 15.4616 671.319 15.0711 670.929C14.6805 670.538 14.0474 670.538 13.6569 670.929L8 676.586L2.34315 670.929C1.95262 670.538 1.31946 670.538 0.928932 670.929C0.538408 671.319 0.538408 671.953 0.928932 672.343L7.29289 678.707ZM150 504V567H152V504H150ZM127 590H32V592H127V590ZM7 615V678H9V615H7ZM32 590C18.1929 590 7 601.193 7 615H9C9 602.297 19.2975 592 32 592V590ZM150 567C150 579.703 139.703 590 127 590V592C140.807 592 152 580.807 152 567H150Z" fill="black"/>
</svg>
